<mxfile host="app.diagrams.net" agent="Mozilla/5.0 (Macintosh; Intel Mac OS X 10_15_7) AppleWebKit/537.36 (KHTML, like Gecko) Chrome/134.0.0.0 Safari/537.36" version="26.2.5">
  <diagram name="第 1 页" id="i1dIJL7SF3CzbUqvMlKF">
    <mxGraphModel dx="1151" dy="1618" grid="0" gridSize="10" guides="1" tooltips="1" connect="1" arrows="1" fold="1" page="0" pageScale="1" pageWidth="827" pageHeight="1169" math="0" shadow="0">
      <root>
        <mxCell id="0" />
        <mxCell id="1" parent="0" />
        <mxCell id="d076ujBdIn5-ccDwfqf9-13" style="edgeStyle=orthogonalEdgeStyle;rounded=0;orthogonalLoop=1;jettySize=auto;html=1;entryX=1;entryY=0.5;entryDx=0;entryDy=0;startSize=8;endSize=8;" edge="1" parent="1" source="d076ujBdIn5-ccDwfqf9-5" target="d076ujBdIn5-ccDwfqf9-8">
          <mxGeometry relative="1" as="geometry">
            <Array as="points">
              <mxPoint x="265" y="-405" />
            </Array>
          </mxGeometry>
        </mxCell>
        <mxCell id="d076ujBdIn5-ccDwfqf9-14" value="&lt;font style=&quot;font-size: 14px;&quot;&gt;Loop&lt;/font&gt;" style="edgeLabel;html=1;align=center;verticalAlign=middle;resizable=0;points=[];fontFamily=Times New Roman;" vertex="1" connectable="0" parent="d076ujBdIn5-ccDwfqf9-13">
          <mxGeometry x="-0.2928" y="1" relative="1" as="geometry">
            <mxPoint as="offset" />
          </mxGeometry>
        </mxCell>
        <mxCell id="d076ujBdIn5-ccDwfqf9-5" value="" style="rounded=1;whiteSpace=wrap;html=1;fontFamily=Times New Roman;fillColor=#FFFFFF;strokeColor=#82b366;" vertex="1" parent="1">
          <mxGeometry x="-213" y="-648" width="528" height="112" as="geometry" />
        </mxCell>
        <mxCell id="d076ujBdIn5-ccDwfqf9-1" value="Message" style="rounded=0;whiteSpace=wrap;html=1;fontFamily=Times New Roman;fillColor=#d5e8d4;strokeColor=#82b366;fontSize=14;" vertex="1" parent="1">
          <mxGeometry x="-105" y="-604" width="99" height="46" as="geometry" />
        </mxCell>
        <mxCell id="d076ujBdIn5-ccDwfqf9-2" value="Message" style="rounded=0;whiteSpace=wrap;html=1;fontFamily=Times New Roman;fillColor=#d5e8d4;strokeColor=#82b366;fontSize=14;" vertex="1" parent="1">
          <mxGeometry x="-6" y="-604" width="99" height="46" as="geometry" />
        </mxCell>
        <mxCell id="d076ujBdIn5-ccDwfqf9-3" value="......" style="rounded=0;whiteSpace=wrap;html=1;fontFamily=Times New Roman;fillColor=#d5e8d4;strokeColor=#82b366;fontSize=14;" vertex="1" parent="1">
          <mxGeometry x="93" y="-604" width="99" height="46" as="geometry" />
        </mxCell>
        <mxCell id="d076ujBdIn5-ccDwfqf9-4" value="Message" style="rounded=0;whiteSpace=wrap;html=1;fontFamily=Times New Roman;fillColor=#d5e8d4;strokeColor=#82b366;fontSize=14;" vertex="1" parent="1">
          <mxGeometry x="192" y="-604" width="99" height="46" as="geometry" />
        </mxCell>
        <mxCell id="d076ujBdIn5-ccDwfqf9-6" value="MessageQueue" style="text;html=1;align=center;verticalAlign=middle;whiteSpace=wrap;rounded=0;fontFamily=Times New Roman;fontSize=14;" vertex="1" parent="1">
          <mxGeometry x="-200" y="-639" width="98" height="35" as="geometry" />
        </mxCell>
        <mxCell id="d076ujBdIn5-ccDwfqf9-7" value="Handler" style="rounded=0;whiteSpace=wrap;html=1;fontFamily=Times New Roman;fillColor=#d5e8d4;strokeColor=#82b366;fontSize=14;" vertex="1" parent="1">
          <mxGeometry x="-113" y="-428" width="99" height="46" as="geometry" />
        </mxCell>
        <mxCell id="d076ujBdIn5-ccDwfqf9-15" style="edgeStyle=none;curved=1;rounded=0;orthogonalLoop=1;jettySize=auto;html=1;entryX=1;entryY=0.5;entryDx=0;entryDy=0;startSize=8;endSize=8;" edge="1" parent="1" source="d076ujBdIn5-ccDwfqf9-8" target="d076ujBdIn5-ccDwfqf9-7">
          <mxGeometry relative="1" as="geometry" />
        </mxCell>
        <mxCell id="d076ujBdIn5-ccDwfqf9-16" value="&lt;font style=&quot;font-size: 14px;&quot;&gt;Dispatch&lt;/font&gt;" style="edgeLabel;html=1;align=center;verticalAlign=middle;resizable=0;points=[];fontFamily=Times New Roman;" vertex="1" connectable="0" parent="d076ujBdIn5-ccDwfqf9-15">
          <mxGeometry x="0.1385" relative="1" as="geometry">
            <mxPoint as="offset" />
          </mxGeometry>
        </mxCell>
        <mxCell id="d076ujBdIn5-ccDwfqf9-8" value="Looper" style="rounded=0;whiteSpace=wrap;html=1;fontFamily=Times New Roman;fillColor=#d5e8d4;strokeColor=#82b366;fontSize=14;" vertex="1" parent="1">
          <mxGeometry x="116" y="-428" width="99" height="46" as="geometry" />
        </mxCell>
        <mxCell id="d076ujBdIn5-ccDwfqf9-17" style="edgeStyle=orthogonalEdgeStyle;rounded=0;orthogonalLoop=1;jettySize=auto;html=1;entryX=0.074;entryY=0.991;entryDx=0;entryDy=0;entryPerimeter=0;startSize=8;endSize=8;" edge="1" parent="1" source="d076ujBdIn5-ccDwfqf9-7" target="d076ujBdIn5-ccDwfqf9-5">
          <mxGeometry relative="1" as="geometry">
            <Array as="points">
              <mxPoint x="-174" y="-405" />
            </Array>
          </mxGeometry>
        </mxCell>
        <mxCell id="d076ujBdIn5-ccDwfqf9-18" value="&lt;font style=&quot;font-size: 14px;&quot;&gt;Send&lt;/font&gt;" style="edgeLabel;html=1;align=center;verticalAlign=middle;resizable=0;points=[];fontFamily=Times New Roman;" vertex="1" connectable="0" parent="d076ujBdIn5-ccDwfqf9-17">
          <mxGeometry x="0.3156" y="-3" relative="1" as="geometry">
            <mxPoint x="-5" y="2" as="offset" />
          </mxGeometry>
        </mxCell>
      </root>
    </mxGraphModel>
  </diagram>
</mxfile>
